<svg id="Layer_1" data-name="Layer 1" xmlns="http://www.w3.org/2000/svg" viewBox="0 0 576 512">
  <defs>
    <style>
      .cls-1 {
        fill: #30373d;
      }
    </style>
  </defs>
  <title>anchor</title>
  <path class="cls-1" d="M13,352h32.4C67.17,454.73,181.94,512,288,512c106.23,0,220.85-57.38,242.64-160H563a12,12,0,0,0,8.48-20.48l-67-67a12,12,0,0,0-17,0l-67,67A12,12,0,0,0,429,352h35.15c-20.29,54.32-85,86.59-144.12,94V256h52a12,12,0,0,0,12-12V204a12,12,0,0,0-12-12H320v-5.47A96,96,0,0,0,384,96C384,43.77,341.61.74,289.37,0A96,96,0,0,0,256,186.53V192H204a12,12,0,0,0-12,12v40a12,12,0,0,0,12,12h52V446c-58.94-7.4-123.82-39.68-144.12-94H147a12,12,0,0,0,8.48-20.48l-67-67a12,12,0,0,0-17,0l-67,67A12,12,0,0,0,13,352ZM288,64a32,32,0,1,1-32,32A32,32,0,0,1,288,64Z"/>
</svg>
