<svg id="Layer_1" data-name="Layer 1" xmlns="http://www.w3.org/2000/svg" viewBox="0 0 95.06 122.88">
  <defs>
    <style>
      .cls-1 {
        fill: #30373d;
        fill-rule: evenodd;
      }
    </style>
  </defs>
  <title>developer</title>
  <path class="cls-1" d="M47.48,108.43a4,4,0,1,1-4,4,4,4,0,0,1,4-4ZM21.64,67.48a2.39,2.39,0,0,0-.21-.34c-.35-.57-.7-1.14-1.05-1.79s-.7-1.36-1-2-.61-1.36-.87-2.06S18,60,17.76,59.18a2.81,2.81,0,0,0-2.67-1.92H7.52a1.65,1.65,0,0,1-.7-.13,1.62,1.62,0,0,1-.52-.39,2.14,2.14,0,0,1-.39-.52,1.62,1.62,0,0,1-.13-.7V46a2.45,2.45,0,0,1,.09-.66,2.29,2.29,0,0,1,.44-.61,1.23,1.23,0,0,1,.52-.35,1.65,1.65,0,0,1,.7-.13h7a2.86,2.86,0,0,0,2.8-2.32c.17-.74.35-1.44.52-2.06s.44-1.36.7-2.06a18.49,18.49,0,0,1,.87-2c.31-.7.66-1.31,1-1.92a2.78,2.78,0,0,0-.48-3.32l-5.42-5.47s0,0-.09,0a2,2,0,0,1-.39-.52,1.25,1.25,0,0,1-.09-.61,1.47,1.47,0,0,1,.13-.66,1.8,1.8,0,0,1,.44-.61L21.12,16a1.8,1.8,0,0,1,.61-.44,1.44,1.44,0,0,1,.66-.13,1.47,1.47,0,0,1,.66.13,2.41,2.41,0,0,1,.57.39h0l4.94,4.94a2.81,2.81,0,0,0,3.59.31c.57-.35,1.14-.7,1.79-1.05l2-1c.66-.31,1.36-.61,2.06-.87s1.31-.48,2.14-.74a2.81,2.81,0,0,0,1.92-2.67V7.26a1.65,1.65,0,0,1,.13-.7A4,4,0,0,1,42.55,6a1.29,1.29,0,0,1,.52-.35,1.62,1.62,0,0,1,.7-.13h7.49a1.65,1.65,0,0,1,.7.13,1.23,1.23,0,0,1,.52.35,4,4,0,0,1,.35.52,1.62,1.62,0,0,1,.13.7v7.57a2.82,2.82,0,0,0,1.92,2.67c.83.26,1.53.52,2.14.74s1.4.57,2.06.87l2,1c.66.35,1.22.7,1.79,1.05a2.78,2.78,0,0,0,3.59-.31l4.94-4.94h0a2,2,0,0,1,.57-.39,1.41,1.41,0,0,1,.66-.13,1.47,1.47,0,0,1,.66.13,1.8,1.8,0,0,1,.61.44l6.69,6.65a1.8,1.8,0,0,1,.44.61,1.41,1.41,0,0,1,.13.66,1.25,1.25,0,0,1-.09.61,2,2,0,0,1-.39.52s0,0-.09,0l-5.42,5.47a2.78,2.78,0,0,0-.48,3.32c.31.61.66,1.22,1,1.92a20.35,20.35,0,0,1,.87,2c.26.7.48,1.36.7,2.06s.35,1.31.52,2.06a2.86,2.86,0,0,0,2.8,2.32h7a1.65,1.65,0,0,1,.7.13,1.14,1.14,0,0,1,.52.35,2.46,2.46,0,0,1,.44.61,2.76,2.76,0,0,1,.09.66v9.54a1.65,1.65,0,0,1-.13.7,2,2,0,0,1-.39.52,1.48,1.48,0,0,1-.52.39,1.65,1.65,0,0,1-.7.13H79.94a2.82,2.82,0,0,0-2.67,1.92c-.26.83-.52,1.53-.74,2.14s-.57,1.4-.87,2.06-.66,1.27-1,2-.7,1.23-1.05,1.79a2.39,2.39,0,0,0-.21.34H80c.28-.56.56-1.16.85-1.78.35-.79.7-1.57,1-2.36,0-.13.13-.31.18-.44h5.6a7.59,7.59,0,0,0,2.84-.52,7.37,7.37,0,0,0,2.41-1.62,6.88,6.88,0,0,0,1.62-2.41A7.81,7.81,0,0,0,95,55.5V46a7.65,7.65,0,0,0-.57-2.8,7,7,0,0,0-1.57-2.36l0,0a7.17,7.17,0,0,0-2.36-1.62,6.93,6.93,0,0,0-2.84-.57H82.89a.91.91,0,0,0-.09-.35c-.26-.83-.52-1.66-.83-2.45s-.66-1.62-1-2.36a2.88,2.88,0,0,1-.17-.35l3.94-4a6.65,6.65,0,0,0,1.66-2.32A7.65,7.65,0,0,0,87,23.93a6.9,6.9,0,0,0-.57-2.84,7.83,7.83,0,0,0-1.62-2.36h0L78,12.08a7.63,7.63,0,0,0-2.41-1.62,7.36,7.36,0,0,0-5.68,0,6.88,6.88,0,0,0-2.41,1.62l-3.41,3.37-.26-.13c-.7-.39-1.49-.74-2.32-1.14s-1.57-.7-2.36-1c-.13,0-.31-.13-.44-.18V7.39a7.59,7.59,0,0,0-.52-2.84,7.26,7.26,0,0,0-1.62-2.41A7.69,7.69,0,0,0,54.2.52,7.74,7.74,0,0,0,51.36,0H43.69a7.78,7.78,0,0,0-2.84.52,7.93,7.93,0,0,0-2.41,1.62,7.26,7.26,0,0,0-1.62,2.41,7.62,7.62,0,0,0-.52,2.84V13c-.13,0-.31.13-.44.18-.79.31-1.57.66-2.36,1s-1.62.74-2.32,1.14l-.26.13-3.41-3.37a6.88,6.88,0,0,0-2.41-1.62,7.24,7.24,0,0,0-2.84-.57,6.9,6.9,0,0,0-2.84.57A7.47,7.47,0,0,0,17,12.08l-6.69,6.65h0a8,8,0,0,0-1.62,2.36,7,7,0,0,0-.57,2.83,7.61,7.61,0,0,0,.57,2.84,6.74,6.74,0,0,0,1.66,2.32l3.94,4a2.88,2.88,0,0,1-.17.35c-.35.74-.66,1.53-1,2.36s-.57,1.62-.83,2.45a1.13,1.13,0,0,0-.09.35H7.39a6.9,6.9,0,0,0-2.84.57,7.17,7.17,0,0,0-2.36,1.62l0,0A7,7,0,0,0,.58,43.16,7.51,7.51,0,0,0,0,46V55.5a7.78,7.78,0,0,0,.52,2.84,6.88,6.88,0,0,0,1.62,2.41,7.26,7.26,0,0,0,2.41,1.62,7.62,7.62,0,0,0,2.84.52H13c0,.13.13.31.18.44.31.79.66,1.57,1,2.36.3.63.57,1.23.85,1.78h6.61Zm10.83-8.85a3.56,3.56,0,0,0-1.9.5,1.48,1.48,0,0,0-.54.63,2.25,2.25,0,0,0-.18,1,9,9,0,0,0,1.79,4.37l0,0,3.76,6a31.71,31.71,0,0,0,5.06,6.64A10.34,10.34,0,0,0,47.7,80.7a10.66,10.66,0,0,0,7.64-3,33,33,0,0,0,5.2-7.1l4.24-7c.79-1.8,1.08-3,.9-3.72-.11-.42-.57-.63-1.37-.67h-.52l-.59,0a1.22,1.22,0,0,1-.33,0,6.49,6.49,0,0,1-1.16-.06l1.45-6.43c-10.77,1.7-18.83-6.3-30.22-1.6l.82,7.57a7.7,7.7,0,0,1-1.29-.06Zm33.29-1.35a2.75,2.75,0,0,1,2,2c.3,1.19,0,2.86-1,5.14h0l-.06.12-4.29,7.06A35,35,0,0,1,56.8,79.2l-.11.1.69,1c.74,1.09,1.59,2.34,2.38,3.31,4.66,2.9,14.91,3.68,18.92,5.91C88.88,95.22,85.16,109,85.9,119c-.22,2.35-1.55,3.7-4.17,3.9H78.9L82,99.31A2.83,2.83,0,0,0,79.34,96H57.47c.54-3.85.93-7.53,1.12-10.31a41,41,0,0,1-3.05-4.11l-.6-.87a12.53,12.53,0,0,1-7.24,2.13A12.22,12.22,0,0,1,39.77,80a24.51,24.51,0,0,1-2.3,5.38,1.07,1.07,0,0,1-.26.26c.36,2.87.86,6.55,1.45,10.37H16.26a2.84,2.84,0,0,0-2.67,3.34l3.11,23.57H13.86c-2.62-.2-3.95-1.55-4.17-3.9.13-10.53-3.87-23.27,7.22-29.45,4.06-2.27,14.53-3,19.1-6A39.82,39.82,0,0,0,38,78.44c0-.16,0,.1,0-.13a39.63,39.63,0,0,1-4.37-6l-3.76-6a11,11,0,0,1-2.14-5.47,4.32,4.32,0,0,1,.37-2,3.65,3.65,0,0,1,1.29-1.5,4.87,4.87,0,0,1,.91-.47,95.9,95.9,0,0,1-.18-10.76,15,15,0,0,1,.46-2.44C32,38.78,36.19,35.23,41,33.56c2.34-.81,1.44-2.74,3.81-2.61,5.62.31,14.28,3.93,17.61,7.77,4.68,5.37,3.47,12,3.32,18.56ZM40,90.19C38.14,88,38,85.77,40,83.38a20.14,20.14,0,0,1,6.57,3A3,3,0,0,1,48,86.17c2.09-1.48,4.75-2.08,7.08-3.19,2.78,2.71,2.48,5.2-.25,7.51a18.77,18.77,0,0,1-4.37-1.6,4.39,4.39,0,0,1-.3,1.17L50.91,96H45.24L46,90.06a3.72,3.72,0,0,1-.6-1.92,17.79,17.79,0,0,1-5.31,2Z"/>
</svg>
